<?xml version="1.0" encoding="utf-8"?>
<!-- Generator: Adobe Illustrator 24.0.1, SVG Export Plug-In . SVG Version: 6.00 Build 0)  -->
<svg version="1.1" id="圖層_1" xmlns="http://www.w3.org/2000/svg" xmlns:xlink="http://www.w3.org/1999/xlink" x="0px" y="0px"
	 viewBox="0 0 339.46 344.66" style="enable-background:new 0 0 339.46 344.66;" xml:space="preserve">
<path d="M167.98,299.64c-24.13,0-49.44-29.84-57.61-67.94l-11.3-71.36l0.99-0.16l11.3,71.33c8.08,37.63,32.95,67.12,56.63,67.12
	c20.6,0,62.05-27.67,66.91-67.1l5.28-58.51l1,0.09l-5.28,58.52C230.96,271.61,188.89,299.64,167.98,299.64z"/>
<path d="M94,163.2l-0.24-0.32c-0.22-0.3-22.38-30.5-15.92-65.42c4.71-25.44,26.14-39.83,43.06-44.43
	c16.91-4.59,32.88-1.11,41.69,9.07l0.16,0.18l-7.91,44.83l-0.3,0.09c-9.74,2.88-16.47,7.89-20.02,14.89
	c-5.58,11-1.28,23.29-1.23,23.42l0.16,0.44L94,163.2z M135.31,52.04c-4.53,0-9.29,0.64-14.14,1.96
	c-16.64,4.52-37.71,18.65-42.34,43.64c-6.03,32.57,13.16,61,15.5,64.32l37.87-16.56c-0.73-2.35-3.74-13.56,1.42-23.75
	c3.64-7.19,10.48-12.34,20.34-15.31l7.72-43.76C155.63,55.7,146.14,52.04,135.31,52.04z"/>
<path d="M196.72,162.73c-0.38-9.53-2.08-23.29-8.09-34.78c-7.19-13.75-18.71-20.73-34.22-20.73c0,0,0,0,0,0v-1
	c37.08,0,42.64,39.49,43.31,56.47L196.72,162.73z"/>
<path d="M240.94,173.58h-44.35l0.04-0.54c0-0.04,0.33-4.19,0.09-10.31l1-0.04c0.19,4.9,0.02,8.56-0.06,9.89h42.74
	c8.21-12.39,32.3-54.45,9.2-91.02c-8.32-13.16-25.57-23.37-45.03-26.64c-16.9-2.83-32.21,0.04-42.03,7.9l-0.62-0.78
	c10.04-8.03,25.65-10.99,42.82-8.1c19.73,3.31,37.25,13.69,45.71,27.09c23.57,37.3-1.2,80.1-9.36,92.33L240.94,173.58z"/>
<g>
	<path d="M131.53,207.3h-21.8c-11.49,0-20.83-9.35-20.83-20.83v-10.47c0-7.67,6.24-13.91,13.91-13.91h38.18
		c4.46,0,8.09,3.63,8.09,8.09v19.59C149.07,199.43,141.2,207.3,131.53,207.3z M102.8,163.08c-7.12,0-12.91,5.79-12.91,12.91v10.47
		c0,10.94,8.9,19.83,19.83,19.83h21.8c9.12,0,16.54-7.42,16.54-16.54v-19.59c0-3.91-3.18-7.09-7.09-7.09H102.8z"/>
	<path d="M162.72,183.39h-1c0-3.49-2.84-6.33-6.33-6.33s-6.33,2.84-6.33,6.33h-1c0-4.04,3.29-7.33,7.33-7.33
		S162.72,179.35,162.72,183.39z"/>
	<path d="M201.07,207.3h-21.8c-9.67,0-17.54-7.87-17.54-17.54v-19.59c0-4.46,3.63-8.09,8.09-8.09h27.41v1h-27.41
		c-3.91,0-7.09,3.18-7.09,7.09v19.59c0,9.12,7.42,16.54,16.54,16.54h21.8c10.94,0,19.83-8.9,19.83-19.83v-10.47
		c0-0.95-0.1-1.89-0.31-2.81l0.98-0.22c0.22,0.99,0.33,2.01,0.33,3.02v10.47C221.9,197.95,212.55,207.3,201.07,207.3z"/>
</g>
<rect x="141.56" y="250.89" transform="matrix(0.988 -0.1543 0.1543 0.988 -36.8945 27.2998)" width="31.82" height="1"/>
<path d="M155.39,237.21c-10.04,0-15.13-4-15.13-11.88c0-4.89,7.03-30.58,7.33-31.67l0.96,0.26c-0.07,0.27-7.3,26.65-7.3,31.4
	c0,7.32,4.62,10.88,14.13,10.88V237.21z"/>
<g>
	<path d="M184.01,187.18c0,4.43-3.59,8.02-8.02,8.02s-8.02-3.59-8.02-8.02"/>
	<rect x="167.98" y="182.07" width="10.42" height="1"/>
</g>
<g>
	<path d="M127.76,187.18c0,4.43-3.59,8.02-8.02,8.02s-8.02-3.59-8.02-8.02"/>
	<rect x="111.73" y="182.07" width="10.42" height="1"/>
</g>
<path d="M240.69,219.6c-1.54,0-3-0.82-4.35-2.45l0.77-0.64c1.51,1.82,3.05,2.44,4.71,1.91c7.29-2.32,14.03-24.67,14.53-31.27
	c0.28-3.69-1.33-6.86-4.31-8.48c-3.44-1.88-7.82-1.23-11.69,1.71l-0.13,0.1H221.4v-1h18.48c4.17-3.1,8.88-3.74,12.64-1.69
	c3.33,1.81,5.14,5.34,4.83,9.44c-0.53,6.97-7.42,29.65-15.22,32.14C241.64,219.52,241.16,219.6,240.69,219.6z"/>
<path d="M161.66,162.35l-2.77-4.16c9.07-6.05,37.23-10.24,50.4,0.11l-3.09,3.93C195.27,153.64,169.62,157.04,161.66,162.35z"/>
<path d="M145.64,162.35c-7.96-5.31-33.6-8.71-44.54-0.11l-3.09-3.93c13.18-10.35,41.34-6.16,50.4-0.11L145.64,162.35z"/>
<rect x="155.08" y="255.76" transform="matrix(0.9521 -0.3057 0.3057 0.9521 -70.7913 60.3965)" width="4.78" height="1"/>
</svg>
